<svg width="40" height="38" viewBox="0 0 40 38" fill="none" xmlns="http://www.w3.org/2000/svg">
<path d="M30.2714 0.00216962C32.9397 -0.0941855 37.5112 3.04339 39.7787 4.52607C37.1042 5.47109 32.4496 7.33715 29.7693 7.31094L29.6076 6.8818L31.0434 5.30854L30.794 5.07288C23.8153 5.79762 19.4936 10.5204 17.1643 16.738C20.2663 17.8447 25.6556 21.1519 21.67 24.5488C17.5216 25.743 16.578 22.1399 15.4285 19.0482C12.9314 17.5677 8.78956 20.9636 7.05129 22.6348C3.47415 26.7888 2.96653 31.6025 1.28714 36.4769C1.10976 36.992 0.626275 37.072 0.204231 37.1645C-0.929143 35.1811 2.94972 25.2049 4.59255 23.0351C7.57757 19.0928 10.4236 17.7263 15.1948 16.8702C17.7227 10.3282 19.8234 6.88428 27.0889 4.34648C28.6922 3.78645 31.0277 3.44496 32.3769 2.46138C31.5032 1.56001 31.027 1.00454 30.2714 0.00216962Z" fill="black"/>
</svg>
