<svg width="197" height="111" viewBox="0 0 197 111" fill="none" xmlns="http://www.w3.org/2000/svg">
<path d="M98.0574 32.969C98.3328 32.9611 99.1502 32.9025 99.3054 33.1342C101.444 36.3282 104.134 41.3564 102.077 45.211C101.095 47.05 99.7302 47.33 98.0369 47.8653C98.5964 49.0553 99.3289 51.267 99.6248 52.5376C109.788 96.3124 137.175 42.0592 143.966 43C144.628 44.9045 144.994 49.0087 145.457 51.2637C146.315 55.4523 147.417 58.6914 149.01 62.6382C155.4 59.4891 161.025 53.2521 166.263 48.4468C163.855 46.7854 163.345 46.1423 163.949 43.1002C164.257 40.9035 167.966 36.3381 170.456 37.5141C172.89 38.6626 178.105 42.5233 176.324 45.7427C175.135 47.892 172.627 48.3434 170.509 48.9988C169.427 62.5272 161.626 87.0291 157.328 99.9308C151.823 99.5333 145.527 98.3368 139.788 97.837C117.862 95.9265 90.3614 94.6228 69.7106 102.927C70.0868 103.457 70.4876 103.97 70.9121 104.462C72.7765 106.636 75.0324 107.265 77.8191 107.411C89.4611 108.023 101.257 104.304 112.668 103.127C119.374 102.435 145.759 98.7847 150.127 103.95C150.273 104.956 150.387 104.529 149.91 105.302C148.662 105.783 146.895 104.841 145.542 104.558C142.064 103.833 138.121 103.587 134.588 103.754C120.341 104.425 106.703 106.354 92.7048 108.926C86.7459 110.02 75.7419 111.477 70.68 107.537C68.2909 105.678 68.0193 104.17 67.5989 101.431C79.8007 93.9964 108.639 93.6859 122.693 94.0527C135.086 94.7092 143.277 95.5032 155.561 97.2912C159.071 86.928 162.156 76.4251 164.807 65.8087C166.085 60.6188 166.867 55.0348 168.203 50.1159C164.886 53.4156 151.606 66.7073 147.566 65.0286C145.129 62.1299 142.468 50.427 142.313 46.5973C134.131 54.2857 127.463 66.5842 116.834 71.0195C101.901 77.2515 98.8337 56.8952 95.4324 47.7047C89.7948 54.5631 79.6191 68.6672 72.9813 73.1523C70.5429 71.5673 66.335 68.1214 63.9227 66.2505C57.076 60.9405 51.1604 56.4235 43.7497 51.9648C46.5529 56.5764 64.5725 89.238 62.0366 92.3965L61.3827 92.3503C59.8601 91.0055 55.3774 79.128 53.8513 76.0354C49.5207 67.2607 43.9261 58.8288 40.2658 49.7728C39.1343 49.8882 37.3592 50.1297 36.2662 49.7804C32.2557 48.4993 31.0683 43.8182 32.4253 40.1655C33.4557 37.3925 34.7963 36.4389 37.317 35.2152C39.5709 36.4703 41.8024 36.6329 43.8971 38.0708C47.7904 40.7432 44.2909 45.5242 42.1789 48.0572C51.5708 53.1408 64.2142 63.5107 73.0206 70.2147C80.0152 63.625 86.8469 54.2051 92.9509 46.5463C88.579 40.822 92.4089 35.6119 98.0574 32.969ZM40.5977 45.9091C47.0041 38.0048 39.8899 39.7632 35.4195 39.1911C33.359 43.8671 35.0565 50.7789 40.5977 45.9091ZM97.8435 45.2675C102.68 44.4009 100.176 37.8296 96.7654 36.3633C95.5056 37.5894 91.9317 41.5679 93.9939 43.7719C94.3396 44.1422 96.8914 44.7531 97.8435 45.2675ZM171.103 46.1643C172.296 45.8259 172.934 45.7779 173.787 44.9476C174.511 42.717 171.118 40.5294 169.357 39.8927C167.992 41.263 166.732 42.2558 166.243 44.1247C166.697 46.5645 169.061 46.118 171.103 46.1643Z" fill="#F6FF4B"/>
<path d="M98.0574 32.969C98.3328 32.9611 99.1502 32.9025 99.3054 33.1342C101.444 36.3282 104.134 41.3564 102.077 45.211C101.095 47.05 99.7302 47.33 98.0369 47.8653C98.5964 49.0553 99.3289 51.267 99.6248 52.5376C109.788 96.3124 137.175 42.0592 143.966 43C144.628 44.9045 144.994 49.0087 145.457 51.2637C146.315 55.4523 147.417 58.6914 149.01 62.6382C155.4 59.4891 161.025 53.2521 166.263 48.4468C163.855 46.7854 163.345 46.1423 163.949 43.1002C164.257 40.9035 167.966 36.3381 170.456 37.5141C172.89 38.6626 178.105 42.5233 176.324 45.7427C175.135 47.892 172.627 48.3434 170.509 48.9988C169.427 62.5272 161.626 87.0291 157.328 99.9308C151.823 99.5333 145.527 98.3368 139.788 97.837C117.862 95.9265 90.3614 94.6228 69.7106 102.927C70.0868 103.457 70.4876 103.97 70.9121 104.462C72.7765 106.636 75.0324 107.265 77.8191 107.411C89.4611 108.023 101.257 104.304 112.668 103.127C119.374 102.435 145.759 98.7847 150.127 103.95C150.273 104.956 150.387 104.529 149.91 105.302C148.662 105.783 146.895 104.841 145.542 104.558C142.064 103.833 138.121 103.587 134.588 103.754C120.341 104.425 106.703 106.354 92.7048 108.926C86.7459 110.02 75.7419 111.477 70.68 107.537C68.2909 105.678 68.0193 104.17 67.5989 101.431C79.8007 93.9964 108.639 93.6859 122.693 94.0527C135.086 94.7092 143.277 95.5032 155.561 97.2912C159.071 86.928 162.156 76.4251 164.807 65.8087C166.085 60.6188 166.867 55.0348 168.203 50.1159C164.886 53.4156 151.606 66.7073 147.566 65.0286C145.129 62.1299 142.468 50.427 142.313 46.5973C134.131 54.2857 127.463 66.5842 116.834 71.0195C101.901 77.2515 98.8337 56.8952 95.4324 47.7047C89.7948 54.5631 79.6191 68.6672 72.9813 73.1523C70.5429 71.5673 66.335 68.1214 63.9227 66.2505C57.076 60.9405 51.1604 56.4235 43.7497 51.9648C46.5529 56.5764 64.5725 89.238 62.0366 92.3965L61.3827 92.3503C59.8601 91.0055 55.3774 79.128 53.8513 76.0354C49.5207 67.2607 43.9261 58.8288 40.2658 49.7728C39.1343 49.8882 37.3592 50.1297 36.2662 49.7804C32.2557 48.4993 31.0683 43.8182 32.4253 40.1655C33.4557 37.3925 34.7963 36.4389 37.317 35.2152C39.5709 36.4703 41.8024 36.6329 43.8971 38.0708C47.7904 40.7432 44.2909 45.5242 42.1789 48.0572C51.5708 53.1408 64.2142 63.5107 73.0206 70.2147C80.0152 63.625 86.8469 54.2051 92.9509 46.5463C88.579 40.822 92.4089 35.6119 98.0574 32.969ZM40.5977 45.9091C47.0041 38.0048 39.8899 39.7632 35.4195 39.1911C33.359 43.8671 35.0565 50.7789 40.5977 45.9091ZM97.8435 45.2675C102.68 44.4009 100.176 37.8296 96.7654 36.3633C95.5056 37.5894 91.9317 41.5679 93.9939 43.7719C94.3396 44.1422 96.8914 44.7531 97.8435 45.2675ZM171.103 46.1643C172.296 45.8259 172.934 45.7779 173.787 44.9476C174.511 42.717 171.118 40.5294 169.357 39.8927C167.992 41.263 166.732 42.2558 166.243 44.1247C166.697 46.5645 169.061 46.118 171.103 46.1643Z" fill="#F6FF4B"/>
<path d="M98.0574 32.969C98.3328 32.9611 99.1502 32.9025 99.3054 33.1342C101.444 36.3282 104.134 41.3564 102.077 45.211C101.095 47.05 99.7302 47.33 98.0369 47.8653C98.5964 49.0553 99.3289 51.267 99.6248 52.5376C109.788 96.3124 137.175 42.0592 143.966 43C144.628 44.9045 144.994 49.0087 145.457 51.2637C146.315 55.4523 147.417 58.6914 149.01 62.6382C155.4 59.4891 161.025 53.2521 166.263 48.4468C163.855 46.7854 163.345 46.1423 163.949 43.1002C164.257 40.9035 167.966 36.3381 170.456 37.5141C172.89 38.6626 178.105 42.5233 176.324 45.7427C175.135 47.892 172.627 48.3434 170.509 48.9988C169.427 62.5272 161.626 87.0291 157.328 99.9308C151.823 99.5333 145.527 98.3368 139.788 97.837C117.862 95.9265 90.3614 94.6228 69.7106 102.927C70.0868 103.457 70.4876 103.97 70.9121 104.462C72.7765 106.636 75.0324 107.265 77.8191 107.411C89.4611 108.023 101.257 104.304 112.668 103.127C119.374 102.435 145.759 98.7847 150.127 103.95C150.273 104.956 150.387 104.529 149.91 105.302C148.662 105.783 146.895 104.841 145.542 104.558C142.064 103.833 138.121 103.587 134.588 103.754C120.341 104.425 106.703 106.354 92.7048 108.926C86.7459 110.02 75.7419 111.477 70.68 107.537C68.2909 105.678 68.0193 104.17 67.5989 101.431C79.8007 93.9964 108.639 93.6859 122.693 94.0527C135.086 94.7092 143.277 95.5032 155.561 97.2912C159.071 86.928 162.156 76.4251 164.807 65.8087C166.085 60.6188 166.867 55.0348 168.203 50.1159C164.886 53.4156 151.606 66.7073 147.566 65.0286C145.129 62.1299 142.468 50.427 142.313 46.5973C134.131 54.2857 127.463 66.5842 116.834 71.0195C101.901 77.2515 98.8337 56.8952 95.4324 47.7047C89.7948 54.5631 79.6191 68.6672 72.9813 73.1523C70.5429 71.5673 66.335 68.1214 63.9227 66.2505C57.076 60.9405 51.1604 56.4235 43.7497 51.9648C46.5529 56.5764 64.5725 89.238 62.0366 92.3965L61.3827 92.3503C59.8601 91.0055 55.3774 79.128 53.8513 76.0354C49.5207 67.2607 43.9261 58.8288 40.2658 49.7728C39.1343 49.8882 37.3592 50.1297 36.2662 49.7804C32.2557 48.4993 31.0683 43.8182 32.4253 40.1655C33.4557 37.3925 34.7963 36.4389 37.317 35.2152C39.5709 36.4703 41.8024 36.6329 43.8971 38.0708C47.7904 40.7432 44.2909 45.5242 42.1789 48.0572C51.5708 53.1408 64.2142 63.5107 73.0206 70.2147C80.0152 63.625 86.8469 54.2051 92.9509 46.5463C88.579 40.822 92.4089 35.6119 98.0574 32.969ZM40.5977 45.9091C47.0041 38.0048 39.8899 39.7632 35.4195 39.1911C33.359 43.8671 35.0565 50.7789 40.5977 45.9091ZM97.8435 45.2675C102.68 44.4009 100.176 37.8296 96.7654 36.3633C95.5056 37.5894 91.9317 41.5679 93.9939 43.7719C94.3396 44.1422 96.8914 44.7531 97.8435 45.2675ZM171.103 46.1643C172.296 45.8259 172.934 45.7779 173.787 44.9476C174.511 42.717 171.118 40.5294 169.357 39.8927C167.992 41.263 166.732 42.2558 166.243 44.1247C166.697 46.5645 169.061 46.118 171.103 46.1643Z" fill="black"/>
<path d="M145.607 31.198C154.827 32.0649 158.539 37.036 147.874 40.9653C147.207 41.1364 146.536 41.2978 145.862 41.4496C143.791 41.9098 139.384 42.4791 139.478 39.216C139.563 36.2163 143.521 33.1149 145.607 31.198ZM141.248 39.2611C143.606 39.194 144.388 39.1603 146.673 38.6652C148.557 38.0042 149.852 37.7236 151.188 36.2204L151.384 35.4091C150.485 34.2581 147.869 33.908 146.495 34.0832C144.602 35.6986 142.718 37.234 141.248 39.2611Z" fill="#F6FF4B"/>
<path d="M145.607 31.198C154.827 32.0649 158.539 37.036 147.874 40.9653C147.207 41.1364 146.536 41.2978 145.862 41.4496C143.791 41.9098 139.384 42.4791 139.478 39.216C139.563 36.2163 143.521 33.1149 145.607 31.198ZM141.248 39.2611C143.606 39.194 144.388 39.1603 146.673 38.6652C148.557 38.0042 149.852 37.7236 151.188 36.2204L151.384 35.4091C150.485 34.2581 147.869 33.908 146.495 34.0832C144.602 35.6986 142.718 37.234 141.248 39.2611Z" fill="#F6FF4B"/>
<path d="M145.607 31.198C154.827 32.0649 158.539 37.036 147.874 40.9653C147.207 41.1364 146.536 41.2978 145.862 41.4496C143.791 41.9098 139.384 42.4791 139.478 39.216C139.563 36.2163 143.521 33.1149 145.607 31.198ZM141.248 39.2611C143.606 39.194 144.388 39.1603 146.673 38.6652C148.557 38.0042 149.852 37.7236 151.188 36.2204L151.384 35.4091C150.485 34.2581 147.869 33.908 146.495 34.0832C144.602 35.6986 142.718 37.234 141.248 39.2611Z" fill="black"/>
<path d="M108.883 77.2936C111.828 77.107 120.649 79.8524 118.293 84.1134C117.79 85.028 116.058 86.2488 115.173 86.8775C107.184 89.3516 101.07 80.0677 108.883 77.2936ZM114.652 84.0466C115.671 83.0815 115.666 83.407 115.736 82.3591C114.344 80.6021 109.774 81.0181 107.691 81.0838C108.309 84.404 111.757 85.725 114.652 84.0466Z" fill="#F6FF4B"/>
<path d="M108.883 77.2936C111.828 77.107 120.649 79.8524 118.293 84.1134C117.79 85.028 116.058 86.2488 115.173 86.8775C107.184 89.3516 101.07 80.0677 108.883 77.2936ZM114.652 84.0466C115.671 83.0815 115.666 83.407 115.736 82.3591C114.344 80.6021 109.774 81.0181 107.691 81.0838C108.309 84.404 111.757 85.725 114.652 84.0466Z" fill="#F6FF4B"/>
<path d="M108.883 77.2936C111.828 77.107 120.649 79.8524 118.293 84.1134C117.79 85.028 116.058 86.2488 115.173 86.8775C107.184 89.3516 101.07 80.0677 108.883 77.2936ZM114.652 84.0466C115.671 83.0815 115.666 83.407 115.736 82.3591C114.344 80.6021 109.774 81.0181 107.691 81.0838C108.309 84.404 111.757 85.725 114.652 84.0466Z" fill="black"/>
<path d="M0.453447 26.0569L0.568871 26.1061C0.801196 26.2022 1.41849 26.4471 1.57084 26.6677C4.5934 31.0461 8.96155 34.1525 12.3119 38.1744C12.8551 38.8262 12.4476 39.7174 12.2434 40.4167C10.0745 39.5156 1.46331 31.5008 0.291728 28.7024C-0.241182 27.4297 0.0427048 27.1538 0.453447 26.0569Z" fill="#F6FF4B"/>
<path d="M0.453447 26.0569L0.568871 26.1061C0.801196 26.2022 1.41849 26.4471 1.57084 26.6677C4.5934 31.0461 8.96155 34.1525 12.3119 38.1744C12.8551 38.8262 12.4476 39.7174 12.2434 40.4167C10.0745 39.5156 1.46331 31.5008 0.291728 28.7024C-0.241182 27.4297 0.0427048 27.1538 0.453447 26.0569Z" fill="#F6FF4B"/>
<path d="M0.453447 26.0569L0.568871 26.1061C0.801196 26.2022 1.41849 26.4471 1.57084 26.6677C4.5934 31.0461 8.96155 34.1525 12.3119 38.1744C12.8551 38.8262 12.4476 39.7174 12.2434 40.4167C10.0745 39.5156 1.46331 31.5008 0.291728 28.7024C-0.241182 27.4297 0.0427048 27.1538 0.453447 26.0569Z" fill="black"/>
<path d="M192.104 9.18799C193.191 9.31701 193.434 9.59044 193.595 10.545C193.088 11.2878 188.796 14.4226 187.577 15.5775C185.538 17.5143 184.838 18.3709 183.063 20.6666C182.272 20.6066 182.327 20.616 181.7 20.122C180.863 16.583 189.35 10.6838 192.104 9.18799Z" fill="#F6FF4B"/>
<path d="M192.104 9.18799C193.191 9.31701 193.434 9.59044 193.595 10.545C193.088 11.2878 188.796 14.4226 187.577 15.5775C185.538 17.5143 184.838 18.3709 183.063 20.6666C182.272 20.6066 182.327 20.616 181.7 20.122C180.863 16.583 189.35 10.6838 192.104 9.18799Z" fill="#F6FF4B"/>
<path d="M192.104 9.18799C193.191 9.31701 193.434 9.59044 193.595 10.545C193.088 11.2878 188.796 14.4226 187.577 15.5775C185.538 17.5143 184.838 18.3709 183.063 20.6666C182.272 20.6066 182.327 20.616 181.7 20.122C180.863 16.583 189.35 10.6838 192.104 9.18799Z" fill="black"/>
<path d="M4.95517 77.6385C7.22597 77.4915 18.154 77.4337 18.5894 80.0983C17.8684 81.0003 18.3148 80.6757 17.1579 81.0431C14.2095 80.6151 3.8917 80.1771 2.93164 79.2337L3.05878 78.4076C3.68837 77.9775 4.23066 77.8638 4.95517 77.6385Z" fill="#F6FF4B"/>
<path d="M4.95517 77.6385C7.22597 77.4915 18.154 77.4337 18.5894 80.0983C17.8684 81.0003 18.3148 80.6757 17.1579 81.0431C14.2095 80.6151 3.8917 80.1771 2.93164 79.2337L3.05878 78.4076C3.68837 77.9775 4.23066 77.8638 4.95517 77.6385Z" fill="#F6FF4B"/>
<path d="M4.95517 77.6385C7.22597 77.4915 18.154 77.4337 18.5894 80.0983C17.8684 81.0003 18.3148 80.6757 17.1579 81.0431C14.2095 80.6151 3.8917 80.1771 2.93164 79.2337L3.05878 78.4076C3.68837 77.9775 4.23066 77.8638 4.95517 77.6385Z" fill="black"/>
<path d="M194.192 59.4209C194.731 59.3421 195.353 59.2961 195.903 59.2407C196.826 59.7458 196.51 59.3945 196.961 60.26L196.7 60.7741C194.846 62.1695 189.669 63.1111 187.22 63.6754L185.854 63.8506C184.835 63.3695 185.198 63.7228 184.645 62.8536L184.929 62.2316C186.877 60.8034 191.67 59.9834 194.192 59.4209Z" fill="#F6FF4B"/>
<path d="M194.192 59.4209C194.731 59.3421 195.353 59.2961 195.903 59.2407C196.826 59.7458 196.51 59.3945 196.961 60.26L196.7 60.7741C194.846 62.1695 189.669 63.1111 187.22 63.6754L185.854 63.8506C184.835 63.3695 185.198 63.7228 184.645 62.8536L184.929 62.2316C186.877 60.8034 191.67 59.9834 194.192 59.4209Z" fill="#F6FF4B"/>
<path d="M194.192 59.4209C194.731 59.3421 195.353 59.2961 195.903 59.2407C196.826 59.7458 196.51 59.3945 196.961 60.26L196.7 60.7741C194.846 62.1695 189.669 63.1111 187.22 63.6754L185.854 63.8506C184.835 63.3695 185.198 63.7228 184.645 62.8536L184.929 62.2316C186.877 60.8034 191.67 59.9834 194.192 59.4209Z" fill="black"/>
<path d="M51.9701 0C54.1644 0.656748 56.0464 6.76075 57.3973 8.83008C57.881 9.57117 57.5119 10.2112 57.2306 10.8963C55.7748 10.4785 55.2874 9.90527 54.4905 8.602C53.004 6.17127 50.6719 2.7888 51.9701 0Z" fill="#F6FF4B"/>
<path d="M51.9701 0C54.1644 0.656748 56.0464 6.76075 57.3973 8.83008C57.881 9.57117 57.5119 10.2112 57.2306 10.8963C55.7748 10.4785 55.2874 9.90527 54.4905 8.602C53.004 6.17127 50.6719 2.7888 51.9701 0Z" fill="#F6FF4B"/>
<path d="M51.9701 0C54.1644 0.656748 56.0464 6.76075 57.3973 8.83008C57.881 9.57117 57.5119 10.2112 57.2306 10.8963C55.7748 10.4785 55.2874 9.90527 54.4905 8.602C53.004 6.17127 50.6719 2.7888 51.9701 0Z" fill="black"/>
<path d="M110.925 0.881836C111.725 1.00626 111.71 0.947461 112.314 1.4693C112.917 3.40201 111.411 8.28671 110.515 10.0075C109.176 9.82403 109.621 10.1356 108.877 9.38953C108.37 7.11513 109.753 2.75982 110.925 0.881836Z" fill="#F6FF4B"/>
<path d="M110.925 0.881836C111.725 1.00626 111.71 0.947461 112.314 1.4693C112.917 3.40201 111.411 8.28671 110.515 10.0075C109.176 9.82403 109.621 10.1356 108.877 9.38953C108.37 7.11513 109.753 2.75982 110.925 0.881836Z" fill="#F6FF4B"/>
<path d="M110.925 0.881836C111.725 1.00626 111.71 0.947461 112.314 1.4693C112.917 3.40201 111.411 8.28671 110.515 10.0075C109.176 9.82403 109.621 10.1356 108.877 9.38953C108.37 7.11513 109.753 2.75982 110.925 0.881836Z" fill="black"/>
<path d="M186.631 91.0404C188.641 90.949 192.787 90.4451 194.187 91.6307C194.483 92.6743 194.436 92.1223 194.032 93.3542C191.963 93.4811 188.331 93.9961 186.71 92.8995C186.215 91.827 186.335 92.4123 186.631 91.0404Z" fill="#F6FF4B"/>
<path d="M186.631 91.0404C188.641 90.949 192.787 90.4451 194.187 91.6307C194.483 92.6743 194.436 92.1223 194.032 93.3542C191.963 93.4811 188.331 93.9961 186.71 92.8995C186.215 91.827 186.335 92.4123 186.631 91.0404Z" fill="#F6FF4B"/>
<path d="M186.631 91.0404C188.641 90.949 192.787 90.4451 194.187 91.6307C194.483 92.6743 194.436 92.1223 194.032 93.3542C191.963 93.4811 188.331 93.9961 186.71 92.8995C186.215 91.827 186.335 92.4123 186.631 91.0404Z" fill="black"/>
</svg>
