<svg width="50" height="37" viewBox="0 0 50 37" fill="none" xmlns="http://www.w3.org/2000/svg">
<path d="M36.8525 10.0676L35.7882 10.3162C34.2339 12.0167 28.7883 21.4464 28.4957 24.0592C28.397 24.9475 28.7444 25.2991 29.271 25.8566C30.6644 25.9779 30.2183 25.9659 31.6519 25.1887C34.4899 22.3518 39.9538 16.5537 42.2542 13.5289C40.4073 11.8547 39.0687 11.2373 36.8525 10.0676ZM33.2172 20.8133C32.5077 21.8532 30.6023 23.6718 29.6294 24.647C30.6279 22.5404 31.0996 21.5762 32.4236 19.6757L36.3514 11.8715L39.8112 13.7248C37.6973 16.0547 35.4554 18.6321 33.2172 20.8133Z" fill="black"/>
<path d="M32.4234 19.6757C31.0995 21.5761 30.6277 22.5404 29.6293 24.647C30.6021 23.6717 32.5076 21.8532 33.2171 20.8133L32.4234 19.6757Z" fill="black"/>
<path d="M4.18991 0C3.00497 0.662715 0.221827 2.0894 0.0353083 3.24705C-0.458417 6.30438 4.36909 16.2342 5.57963 19.0773C6.43542 19.5616 6.64392 19.5061 7.58383 19.4132C8.16167 19.0385 8.69562 18.8412 8.81631 18.1163C9.33198 15.0144 5.39314 2.31201 4.18991 0ZM5.1298 12.8975C4.09115 10.6356 1.3592 5.86466 1.92607 3.72811C2.51122 3.13704 2.58803 3.06464 3.39262 2.85775C3.87903 4.56115 6.26719 11.976 5.76615 13.2415L5.2761 13.1355L5.1298 12.8975Z" fill="black"/>
<path d="M3.39204 2.85779C2.58745 3.06468 2.51065 3.13707 1.92549 3.72814C1.35862 5.8647 4.09057 10.6356 5.12923 12.8976L5.27553 13.1355L5.76558 13.2415C6.26662 11.9761 3.87846 4.56118 3.39204 2.85779Z" fill="black"/>
<path d="M48.8223 27.1421C46.6645 27.8425 35.4661 31.6795 34.5042 32.9121C34.208 34.4016 34.4018 34.1984 34.9979 35.7888C37.7701 36.4581 45.8233 36.0279 48.8844 35.7921C49.3708 32.3217 49.8792 30.4224 48.8223 27.1421ZM47.4581 33.789C43.3766 34.2466 39.5877 34.1143 35.7806 34.5442C36.395 33.1756 36.2707 33.532 38.0334 32.8452C41.1677 31.6228 44.6347 30.6787 47.6812 29.2567C47.619 30.7569 47.5788 32.295 47.4581 33.789Z" fill="black"/>
<path d="M47.6809 29.2567C44.6345 30.6786 41.1674 31.6228 38.0332 32.8452C36.2704 33.532 36.3947 33.1756 35.7803 34.5442C39.5875 34.1143 43.3764 34.2466 47.4578 33.789C47.5785 32.295 47.6188 30.7569 47.6809 29.2567Z" fill="black"/>
<path d="M20.5452 5.37488L19.7151 5.44908C18.3326 6.67107 16.771 17.6094 17.1916 19.4524C18.1278 20.3633 19.7224 20.6016 21.0353 20.9324C21.6168 19.9671 25.1278 8.69138 24.8023 7.33378C23.7563 6.26459 22.0045 5.85665 20.5452 5.37488ZM19.7041 18.7619L18.9799 18.2615C18.819 16.5592 19.6931 8.31745 20.6074 7.1821L21.4193 6.88929C22.1544 7.50595 22.9627 7.90147 22.9078 8.75572C22.7176 11.8244 20.6842 15.8087 19.7041 18.7619Z" fill="black"/>
</svg>
