<svg width="98" height="52" viewBox="0 0 98 52" fill="none" xmlns="http://www.w3.org/2000/svg">
<path d="M1.1557 36.6676C7.81551 36.4026 15.9528 36.6054 22.6273 35.696C45.2472 32.6141 72.3985 25.5736 88.9877 8.87409C91.5514 6.29414 94.2504 1.68 97.3993 0C97.5273 1.83206 93.3654 6.49848 92.0488 8.14851C92.7254 11.3561 95.2781 20.7094 94.4772 23.1815C92.5937 24.8732 89.6277 22.7718 87.6711 21.7526C85.3561 20.5475 82.8838 19.2864 80.6346 17.9858L77.0797 20.4221C76.586 24.3896 76.8457 35.0289 75.1341 36.8156C72.8812 37.267 63.8186 29.2454 61.9132 27.5339C60.6661 28.0994 58.662 28.9339 57.5428 29.6149C57.1552 32.6006 56.4712 42.3096 55.0449 44.1972C54.5329 44.3804 54.1306 44.6384 53.6735 44.2894C50.104 41.5701 46.3078 36.5813 42.9615 33.4355L38.4338 34.9441C37.7536 38.2617 36.2212 48.2631 33.9866 49.9639C31.1413 50.0707 25.831 39.7264 24.2182 37.0689L18.6738 37.7211C17.0976 40.3047 11.0009 53.0169 8.2251 51.4937C6.11122 48.2985 6.60497 42.5892 5.69067 38.8904C5.43466 37.8647 4.97019 37.9532 4.0888 37.7463L3.93518 37.7678C2.34429 37.9879 1.33123 38.1301 0 37.1223L0.318177 36.6994L1.1557 36.6676ZM63.4675 27.0631C65.4717 28.3981 67.0041 29.635 68.8729 31.1447C70.7125 32.4731 72.7642 34.0295 74.6331 35.2727C74.8525 31.2021 75.2401 26.2122 75.156 22.2132L74.8415 21.8722L74.644 21.9051C71.1185 23.5021 66.909 25.6456 63.4675 27.0631ZM25.6372 36.9903C28.2009 39.881 29.5028 42.8309 31.6789 45.7592L33.5587 48.8011C34.2353 46.022 36.3785 37.9948 36.6052 35.5549C35.7933 35.1272 35.9542 35.2807 34.8461 35.4894L25.6372 36.9903ZM6.92315 37.9893C7.57048 41.9799 8.21048 46.5893 9.0553 50.4943C9.98423 49.0673 11.4837 46.8978 12.1384 45.4203C13.6232 42.866 15.0422 40.3547 16.7282 37.9221C13.4586 37.97 10.1927 37.9923 6.92315 37.9893ZM55.663 29.9311C52.6604 30.8958 47.7488 32.605 44.7645 33.3003C46.7613 35.034 47.8549 36.1496 49.6359 38.1169C51.2122 39.8941 52.6641 41.6151 54.4927 43.1449C54.7487 41.3925 56.0726 30.6849 55.663 29.9311ZM90.1506 9.94988C87.6016 12.7294 84.9208 14.9065 81.8597 17.1052C83.9407 17.9576 85.5938 18.9033 87.5613 19.9915C89.4521 20.8541 91.5697 21.764 93.4166 22.6822C92.6156 18.5535 91.7452 14.4394 90.8016 10.341L90.1506 9.94988Z" fill="black"/>
<path d="M6.92315 37.9893C7.57048 41.9799 8.21048 46.5893 9.0553 50.4943C9.98423 49.0673 11.4837 46.8978 12.1384 45.4203C13.6232 42.866 15.0422 40.3547 16.7282 37.9221C13.4586 37.97 10.1927 37.9923 6.92315 37.9893Z" fill="#8CF38C"/>
<path d="M25.6372 36.9903C28.2009 39.881 29.5028 42.8309 31.6789 45.7592L33.5587 48.8011C34.2353 46.022 36.3785 37.9948 36.6052 35.5549C35.7933 35.1272 35.9542 35.2807 34.8461 35.4894L25.6372 36.9903Z" fill="#F65D5D"/>
<path d="M55.663 29.9311C52.6604 30.8958 47.7488 32.605 44.7645 33.3003C46.7613 35.034 47.8549 36.1496 49.6359 38.1169C51.2122 39.8941 52.6641 41.6151 54.4927 43.1449C54.7487 41.3925 56.0726 30.6849 55.663 29.9311Z" fill="#E0F427"/>
<path d="M63.4675 27.0631C65.4717 28.3981 67.0041 29.635 68.8729 31.1447C70.7125 32.4731 72.7642 34.0295 74.6331 35.2727C74.8525 31.2021 75.2401 26.2122 75.156 22.2132L74.8415 21.8722L74.644 21.9051C71.1185 23.5021 66.909 25.6456 63.4675 27.0631Z" fill="#F760CA"/>
<path d="M90.1506 9.94988C87.6016 12.7294 84.9208 14.9065 81.8597 17.1052C83.9407 17.9576 85.5938 18.9033 87.5613 19.9915C89.4521 20.8541 91.5697 21.764 93.4166 22.6822C92.6156 18.5535 91.7452 14.4394 90.8016 10.341L90.1506 9.94988Z" fill="#8CF5F5"/>
</svg>
